<?xml version="1.0" encoding="UTF-8"?><svg id="Layer_1" xmlns="http://www.w3.org/2000/svg" viewBox="0 0 1045.14 221.11"><defs><style>.cls-1,.cls-2,.cls-3{stroke-width:0px;}.cls-2{fill:#fff;}.cls-3{fill:#e49b0f;}</style></defs><path class="cls-3" d="m711.39,61.63l1.71-6.38c.83-3.11-1.01-6.3-4.12-7.14s-6.3,1.01-7.14,4.12l-1.7,6.39-17.52-4.68c-4.19-1.12-8.5,1.36-9.63,5.56l-3.01,11.24c-8.55,1.48-16.98,4.37-24.93,8.96-36.24,20.92-48.67,67.26-27.74,103.51s67.27,48.66,103.51,27.74c36.24-20.92,48.67-67.26,27.74-103.51-4.59-7.94-10.45-14.67-17.1-20.22l3.01-11.24c1.12-4.19-1.36-8.5-5.56-9.63l-17.52-4.71Z"/><path class="cls-2" d="m658.59,97.48l1.7,3.48c-2.2,1.39-4.3,3.16-6.29,5.28-1.99,2.13-3.85,4.41-5.58,6.85-1.68,2.46-3.2,4.92-4.56,7.39-1.34,2.42-2.51,4.67-3.5,6.73-.93,2.04-1.63,3.7-2.11,4.98-.48,1.28-1.04,3-1.68,5.14-.58,2.11-1.15,4.5-1.71,7.16-.55,2.61-.98,5.35-1.29,8.21-.28,2.93-.37,5.82-.25,8.68.12,2.86.55,5.54,1.29,8.04l-3.5,1.53c-1.15-2.27-2.21-5.03-3.16-8.26-.97-3.18-1.67-6.67-2.09-10.45-.37-3.77-.37-7.67,0-11.7.37-4.03,1.3-8.02,2.78-11.96,1.48-3.94,3.42-7.6,5.83-10.98,2.4-3.38,5.01-6.41,7.8-9.1,2.84-2.67,5.67-4.94,8.49-6.81,2.86-1.85,5.47-3.26,7.84-4.21Z"/><path class="cls-3" d="m724.5,42.83c-1.28.53-2.39.64-3.33.32-.96-.41-1.77-1.02-2.41-1.84-.7-.85-1.29-1.79-1.75-2.8-.53-1.28-1.02-2.9-1.45-4.87-.46-2.06-.8-4.57-1.03-7.55-1.52,2.64-2.89,4.8-4.09,6.5-1.23,1.61-2.33,2.88-3.32,3.8-.85.7-1.75,1.35-2.68,1.93-.96.49-1.94.71-2.96.65-1.04-.15-2.02-.72-2.94-1.7-1.38-1.62-1.74-3.14-1.08-4.55.67-1.41,1.63-2.69,2.88-3.83,1.04-.9,2.45-1.84,4.22-2.84,1.75-1.08,3.99-2.26,6.74-3.51-2.95-.58-5.41-1.18-7.38-1.79-1.93-.67-3.49-1.34-4.67-2.02-.95-.55-1.81-1.2-2.58-1.94-.82-.78-1.34-1.63-1.54-2.57-.23-1.03,0-2.13.68-3.31.71-1.23,1.55-1.98,2.53-2.24.92-.29,1.92-.28,3,.05,1.03.29,2.02.72,2.97,1.27,1.18.68,2.52,1.72,4.03,3.11,1.54,1.34,3.31,3.14,5.29,5.41-.28-3.01-.41-5.51-.38-7.51-.02-2.03.08-3.7.3-4.99.21-1.15.57-2.21,1.06-3.2.49-.99,1.19-1.74,2.09-2.27.85-.56,1.93-.68,3.24-.37,2.06.44,3.26,1.47,3.6,3.09.31,1.53.31,3.09-.02,4.7-.34,1.37-.9,2.99-1.68,4.86-.84,1.84-2.01,4.07-3.54,6.71,2.74-1.26,5.08-2.19,7-2.8,1.96-.67,3.6-1.06,4.95-1.18,1.11-.11,2.21-.07,3.3.11,1.12.13,2.06.52,2.8,1.17.78.6,1.24,1.61,1.38,3.04.12,1.34-.13,2.43-.76,3.26-.6.78-1.42,1.35-2.45,1.72-1.04.37-2.08.63-3.14.77-1.43.15-3.17.11-5.22-.1-2.01-.27-4.48-.72-7.4-1.36,2.01,2.21,3.62,4.15,4.83,5.82,1.21,1.67,2.07,3.14,2.61,4.42.46,1.01.79,2.06.99,3.15.2,1.09.11,2.08-.27,2.99-.37.91-1.19,1.67-2.44,2.29h0Z"/><path class="cls-1" d="m970.47,123.12c0-3.86.74-7.49,2.21-10.87,1.48-3.39,3.47-6.34,5.99-8.85,2.56-2.56,5.53-4.58,8.92-6.05,3.39-1.48,7.01-2.21,10.87-2.21h42.84v18.68h-42.84c-1.3,0-2.52.24-3.65.72-1.13.48-2.13,1.15-2.99,2.02-.82.82-1.48,1.8-1.95,2.93-.48,1.13-.72,2.34-.72,3.65,0,1.3.24,2.54.72,3.71.48,1.13,1.13,2.13,1.95,3,.87.82,1.87,1.47,2.99,1.95,1.13.48,2.34.72,3.65.72h18.68c3.86,0,7.49.74,10.87,2.21,3.43,1.43,6.4,3.43,8.92,5.99,2.56,2.52,4.56,5.49,5.99,8.92,1.48,3.38,2.21,7.01,2.21,10.87s-.74,7.49-2.21,10.87c-1.43,3.39-3.43,6.36-5.99,8.92-2.52,2.52-5.49,4.51-8.92,5.99-3.39,1.48-7.01,2.21-10.87,2.21h-41.47v-18.68h41.47c1.3,0,2.52-.24,3.65-.72s2.11-1.13,2.93-1.95c.87-.87,1.54-1.87,2.02-2.99.48-1.13.72-2.34.72-3.65s-.24-2.52-.72-3.65c-.48-1.13-1.15-2.11-2.02-2.93-.82-.87-1.8-1.54-2.93-2.02-1.13-.48-2.34-.72-3.65-.72h-18.68c-3.86,0-7.49-.74-10.87-2.21-3.39-1.48-6.36-3.47-8.92-5.99-2.52-2.56-4.51-5.53-5.99-8.92-1.48-3.43-2.21-7.07-2.21-10.94h0Zm-13.66,37.37c0,3.86-.74,7.49-2.21,10.87-1.48,3.39-3.49,6.36-6.05,8.92-2.52,2.52-5.47,4.51-8.85,5.99-3.39,1.48-7.01,2.21-10.87,2.21h-46.68v-93.36h46.68c3.86,0,7.49.74,10.87,2.21,3.39,1.48,6.34,3.49,8.85,6.05,2.56,2.52,4.58,5.47,6.05,8.85,1.48,3.39,2.21,7.01,2.21,10.87,0,1.74-.24,3.52-.72,5.34-.48,1.82-1.15,3.58-2.02,5.27s-1.91,3.23-3.12,4.62c-1.22,1.39-2.56,2.54-4.04,3.45,1.52.83,2.89,1.95,4.1,3.39,1.22,1.39,2.26,2.93,3.12,4.62.87,1.69,1.52,3.47,1.95,5.34.48,1.82.72,3.6.72,5.34Zm-55.99,9.31h27.99c1.3,0,2.52-.24,3.65-.72,1.13-.48,2.1-1.13,2.93-1.95.87-.87,1.54-1.87,2.02-2.99.48-1.13.72-2.34.72-3.65s-.24-2.52-.72-3.65c-.48-1.13-1.15-2.11-2.02-2.93-.82-.87-1.8-1.54-2.93-2.02-1.13-.48-2.34-.72-3.65-.72h-27.99v18.62Zm0-37.3h27.99c1.3,0,2.52-.24,3.65-.72,1.13-.48,2.1-1.13,2.93-1.95.87-.87,1.54-1.87,2.02-3,.48-1.17.72-2.41.72-3.71s-.24-2.52-.72-3.65c-.48-1.13-1.15-2.11-2.02-2.93-.82-.87-1.8-1.54-2.93-2.02-1.13-.48-2.34-.72-3.65-.72h-27.99v18.69Zm-40.35,55.99h-18.62v-66.67c0-1.3-.26-2.52-.78-3.65-.48-1.13-1.15-2.11-2.02-2.93-.82-.87-1.8-1.54-2.93-2.02s-2.34-.72-3.65-.72-2.52.24-3.65.72c-1.13.48-2.13,1.15-2.99,2.02-.82.82-1.48,1.8-1.95,2.93-.48,1.13-.72,2.34-.72,3.65v66.67h-18.68v-66.67c0-1.3-.24-2.52-.72-3.65s-1.15-2.11-2.02-2.93c-.82-.87-1.8-1.54-2.93-2.02-1.13-.48-2.34-.72-3.65-.72s-2.52.24-3.65.72c-1.13.48-2.13,1.15-2.99,2.02-.82.82-1.48,1.8-1.95,2.93s-.72,2.34-.72,3.65v66.67h-18.68v-66.67c0-3.86.72-7.49,2.15-10.87,1.48-3.43,3.47-6.4,5.99-8.92,2.56-2.56,5.53-4.56,8.92-5.99,3.43-1.48,7.07-2.21,10.94-2.21,3.47,0,6.81.63,10.03,1.89,3.21,1.22,6.1,2.99,8.66,5.34,2.56-2.34,5.42-4.12,8.59-5.34,3.21-1.26,6.55-1.89,10.03-1.89,3.86,0,7.49.74,10.87,2.21,3.43,1.43,6.4,3.43,8.92,5.99,2.56,2.52,4.56,5.49,5.99,8.92,1.48,3.39,2.21,7.01,2.21,10.87v66.67Zm-260.48-27.99c0,3.86-.74,7.49-2.21,10.87-1.48,3.39-3.49,6.36-6.05,8.92-2.52,2.52-5.47,4.51-8.85,5.99-3.39,1.48-7.01,2.21-10.87,2.21h-46.68v-93.36h46.68c3.86,0,7.49.74,10.87,2.21,3.39,1.48,6.34,3.49,8.85,6.05,2.56,2.52,4.58,5.47,6.05,8.85,1.48,3.39,2.21,7.01,2.21,10.87,0,1.74-.24,3.52-.72,5.34-.48,1.82-1.15,3.58-2.02,5.27s-1.91,3.23-3.12,4.62c-1.22,1.39-2.56,2.54-4.04,3.45,1.52.83,2.89,1.95,4.1,3.39,1.22,1.39,2.26,2.93,3.12,4.62.87,1.69,1.52,3.47,1.95,5.34.48,1.82.72,3.6.72,5.34Zm-55.99,9.31h27.99c1.3,0,2.52-.24,3.65-.72,1.13-.48,2.1-1.13,2.93-1.95.87-.87,1.54-1.87,2.02-2.99.48-1.13.72-2.34.72-3.65s-.24-2.52-.72-3.65c-.48-1.13-1.15-2.11-2.02-2.93-.82-.87-1.8-1.54-2.93-2.02-1.13-.48-2.34-.72-3.65-.72h-27.99v18.62Zm0-37.3h27.99c1.3,0,2.52-.24,3.65-.72,1.13-.48,2.1-1.13,2.93-1.95.87-.87,1.54-1.87,2.02-3,.48-1.17.72-2.41.72-3.71s-.24-2.52-.72-3.65c-.48-1.13-1.15-2.11-2.02-2.93-.82-.87-1.8-1.54-2.93-2.02-1.13-.48-2.34-.72-3.65-.72h-27.99v18.69Zm-38.07,46.55c-4.34,3.69-9.18,6.53-14.52,8.53-5.34,1.95-10.89,2.93-16.67,2.93-4.43,0-8.7-.59-12.83-1.76-4.08-1.13-7.9-2.73-11.46-4.82-3.56-2.13-6.81-4.64-9.77-7.55-2.95-2.95-5.47-6.21-7.55-9.77-2.08-3.6-3.71-7.46-4.88-11.59-1.13-4.12-1.69-8.4-1.69-12.83s.56-8.68,1.69-12.76c1.17-4.08,2.8-7.9,4.88-11.46,2.08-3.6,4.6-6.86,7.55-9.77,2.95-2.95,6.21-5.47,9.77-7.55,3.56-2.08,7.38-3.69,11.46-4.82,4.12-1.17,8.4-1.76,12.83-1.76,5.77,0,11.33,1,16.67,3,5.34,1.95,10.18,4.77,14.52,8.46l-9.77,16.28c-2.82-2.86-6.08-5.1-9.77-6.71-3.69-1.65-7.57-2.47-11.65-2.47s-7.92.78-11.52,2.34c-3.56,1.56-6.68,3.69-9.38,6.38-2.69,2.65-4.82,5.77-6.38,9.38-1.56,3.56-2.34,7.38-2.34,11.46s.78,7.99,2.34,11.59c1.56,3.6,3.69,6.75,6.38,9.44,2.69,2.69,5.82,4.82,9.38,6.38,3.6,1.56,7.44,2.34,11.52,2.34,2.34,0,4.62-.28,6.84-.85,2.21-.56,4.32-1.34,6.32-2.34v-26.56h18.03v36.85Zm-96.6,9.44h-19.99l-36-61.46v61.46h-18.68v-93.36h19.99l36,61.52v-61.52h18.68v93.36Zm-96.99,0h-18.68v-93.36h18.68v93.36Zm-36.05-46.68c0,4.3-.56,8.44-1.69,12.43-1.09,3.95-2.65,7.66-4.69,11.13-2.04,3.43-4.47,6.58-7.29,9.44-2.82,2.82-5.97,5.25-9.44,7.29-3.47,2.04-7.21,3.62-11.2,4.75-3.95,1.08-8.07,1.63-12.37,1.63h-28.13v-93.36h28.12c4.3,0,8.42.56,12.37,1.69,3.99,1.08,7.73,2.65,11.2,4.69,3.47,2.04,6.62,4.49,9.44,7.36,2.82,2.82,5.25,5.97,7.29,9.44,2.04,3.43,3.6,7.14,4.69,11.13,1.13,3.95,1.69,8.07,1.69,12.37h0Zm-18.68,0c0-3.86-.74-7.49-2.21-10.87-1.43-3.39-3.43-6.34-5.99-8.85-2.52-2.56-5.49-4.58-8.92-6.06-3.39-1.48-7.01-2.21-10.87-2.21h-9.31v55.99h9.31c3.86,0,7.49-.72,10.87-2.15,3.43-1.48,6.4-3.47,8.92-5.99,2.56-2.56,4.56-5.53,5.99-8.92,1.48-3.43,2.21-7.07,2.21-10.94h0Zm-73.36.39c0,4.43-.59,8.7-1.76,12.83-1.13,4.08-2.73,7.92-4.82,11.52-2.08,3.56-4.6,6.81-7.55,9.77s-6.21,5.49-9.77,7.62c-3.56,2.08-7.4,3.69-11.52,4.82-4.12,1.17-8.4,1.76-12.83,1.76s-8.7-.59-12.82-1.76c-4.08-1.13-7.92-2.73-11.52-4.82-3.56-2.13-6.81-4.67-9.76-7.62s-5.49-6.21-7.62-9.77c-2.08-3.6-3.71-7.44-4.88-11.52-1.13-4.12-1.69-8.4-1.69-12.83s.56-8.7,1.69-12.82c1.17-4.12,2.8-7.96,4.88-11.52,2.13-3.56,4.67-6.81,7.62-9.76s6.21-5.47,9.76-7.55c3.6-2.08,7.44-3.69,11.52-4.82,4.12-1.17,8.4-1.76,12.82-1.76,4.43,0,8.7.59,12.83,1.76,4.12,1.13,7.96,2.73,11.52,4.82,3.56,2.08,6.81,4.6,9.77,7.55s5.47,6.21,7.55,9.76c2.08,3.56,3.69,7.4,4.82,11.52,1.17,4.12,1.76,8.4,1.76,12.82Zm-18.55,0c0-4.08-.78-7.92-2.34-11.52-1.56-3.65-3.69-6.79-6.38-9.44-2.65-2.69-5.79-4.82-9.44-6.38-3.6-1.56-7.44-2.34-11.52-2.34s-7.99.78-11.59,2.34c-3.6,1.56-6.75,3.69-9.44,6.38-2.69,2.65-4.82,5.79-6.38,9.44-1.56,3.6-2.34,7.44-2.34,11.52s.78,7.92,2.34,11.52c1.56,3.56,3.69,6.68,6.38,9.38,2.69,2.69,5.84,4.82,9.44,6.38,3.6,1.56,7.47,2.34,11.59,2.34s7.92-.78,11.52-2.34c3.65-1.56,6.79-3.69,9.44-6.38,2.69-2.69,4.82-5.82,6.38-9.38,1.56-3.6,2.34-7.44,2.34-11.52Zm-86.06,36.72c-4.34,3.73-9.2,6.6-14.58,8.6-5.38,2-10.96,2.99-16.73,2.99-4.43,0-8.7-.59-12.83-1.76-4.08-1.13-7.92-2.73-11.52-4.82-3.56-2.13-6.81-4.67-9.77-7.62s-5.49-6.21-7.62-9.77c-2.08-3.6-3.71-7.44-4.88-11.52-1.13-4.12-1.69-8.4-1.69-12.83s.56-8.7,1.69-12.82c1.17-4.12,2.8-7.96,4.88-11.52,2.13-3.6,4.67-6.88,7.62-9.83,2.95-2.95,6.21-5.47,9.77-7.55,3.6-2.13,7.44-3.75,11.52-4.88,4.12-1.17,8.4-1.76,12.83-1.76,5.77,0,11.35,1,16.73,3,5.38,1.95,10.24,4.82,14.58,8.59l-9.9,16.28c-2.73-2.95-5.97-5.21-9.7-6.77-3.73-1.61-7.64-2.41-11.72-2.41s-7.99.78-11.59,2.35c-3.6,1.56-6.75,3.69-9.44,6.38-2.69,2.65-4.82,5.79-6.38,9.44-1.56,3.6-2.34,7.44-2.34,11.52s.78,7.92,2.34,11.52c1.56,3.56,3.69,6.68,6.38,9.38,2.69,2.69,5.84,4.82,9.44,6.38,3.6,1.56,7.47,2.34,11.59,2.34s7.99-.78,11.72-2.34c3.73-1.61,6.97-3.88,9.7-6.84l9.9,16.28Z"/></svg>